<svg width="288" height="36" viewBox="0 0 288 36" fill="none" xmlns="http://www.w3.org/2000/svg">
<path d="M13.728 35V18.248L14.064 20.6L0.48 1.4H6.72L17.088 16.28L15.888 16.136L25.248 1.4H31.2L18.192 21.128L18.912 17.864V35H13.728ZM48.768 35.48C46.4 35.48 44.208 35.048 42.192 34.184C40.208 33.32 38.464 32.12 36.96 30.584C35.488 29.016 34.336 27.192 33.504 25.112C32.704 23 32.304 20.696 32.304 18.2C32.304 15.704 32.704 13.416 33.504 11.336C34.336 9.224 35.488 7.4 36.96 5.864C38.464 4.296 40.208 3.08 42.192 2.216C44.208 1.352 46.4 0.919998 48.768 0.919998C51.136 0.919998 53.312 1.352 55.296 2.216C57.312 3.08 59.056 4.296 60.528 5.864C62.032 7.432 63.184 9.272 63.984 11.384C64.816 13.464 65.232 15.736 65.232 18.2C65.232 20.664 64.816 22.952 63.984 25.064C63.184 27.144 62.032 28.968 60.528 30.536C59.056 32.104 57.312 33.32 55.296 34.184C53.312 35.048 51.136 35.48 48.768 35.48ZM48.768 30.44C50.4 30.44 51.888 30.136 53.232 29.528C54.608 28.92 55.792 28.072 56.784 26.984C57.776 25.864 58.544 24.568 59.088 23.096C59.664 21.592 59.952 19.96 59.952 18.2C59.952 16.44 59.664 14.824 59.088 13.352C58.544 11.848 57.776 10.552 56.784 9.464C55.792 8.344 54.608 7.48 53.232 6.872C51.888 6.264 50.4 5.96 48.768 5.96C47.136 5.96 45.632 6.264 44.256 6.872C42.912 7.48 41.728 8.328 40.704 9.416C39.712 10.504 38.944 11.8 38.4 13.304C37.856 14.776 37.584 16.408 37.584 18.2C37.584 19.96 37.856 21.592 38.4 23.096C38.944 24.6 39.712 25.896 40.704 26.984C41.728 28.072 42.912 28.92 44.256 29.528C45.632 30.136 47.136 30.44 48.768 30.44ZM85.3069 35.288C82.7149 35.288 80.3949 34.728 78.3469 33.608C76.2989 32.456 74.6829 30.888 73.4989 28.904C72.3469 26.888 71.7709 24.616 71.7709 22.088V1.352H76.9549V21.656C76.9549 23.288 77.3389 24.76 78.1069 26.072C78.8749 27.352 79.8829 28.376 81.1309 29.144C82.4109 29.912 83.8029 30.296 85.3069 30.296C86.9069 30.296 88.3469 29.912 89.6269 29.144C90.9389 28.376 91.9789 27.352 92.7469 26.072C93.5149 24.76 93.8989 23.288 93.8989 21.656V1.352H98.8429V22.088C98.8429 24.616 98.2509 26.888 97.0669 28.904C95.9149 30.888 94.3149 32.456 92.2669 33.608C90.2189 34.728 87.8989 35.288 85.3069 35.288ZM107.782 35V1.4H122.086C124.006 1.4 125.766 1.88 127.366 2.84C128.998 3.768 130.294 5.048 131.254 6.68C132.214 8.28 132.694 10.088 132.694 12.104C132.694 13.928 132.214 15.624 131.254 17.192C130.294 18.76 129.014 20.024 127.414 20.984C125.814 21.912 124.038 22.376 122.086 22.376H112.966V35H107.782ZM127.75 35L119.206 19.832L124.534 18.632L134.038 35.048L127.75 35ZM112.966 17.384H122.566C123.494 17.384 124.326 17.16 125.062 16.712C125.798 16.232 126.374 15.592 126.79 14.792C127.206 13.96 127.414 13.048 127.414 12.056C127.414 10.936 127.142 9.96 126.598 9.128C126.086 8.264 125.35 7.592 124.39 7.112C123.462 6.632 122.406 6.392 121.222 6.392H112.966V17.384ZM154.61 35V1.4H159.794V30.008H175.538V35H154.61ZM196.471 35.48C194.103 35.48 191.911 35.048 189.895 34.184C187.911 33.32 186.167 32.12 184.663 30.584C183.191 29.016 182.039 27.192 181.207 25.112C180.407 23 180.007 20.696 180.007 18.2C180.007 15.704 180.407 13.416 181.207 11.336C182.039 9.224 183.191 7.4 184.663 5.864C186.167 4.296 187.911 3.08 189.895 2.216C191.911 1.352 194.103 0.919998 196.471 0.919998C198.839 0.919998 201.015 1.352 202.999 2.216C205.015 3.08 206.759 4.296 208.231 5.864C209.735 7.432 210.887 9.272 211.687 11.384C212.519 13.464 212.935 15.736 212.935 18.2C212.935 20.664 212.519 22.952 211.687 25.064C210.887 27.144 209.735 28.968 208.231 30.536C206.759 32.104 205.015 33.32 202.999 34.184C201.015 35.048 198.839 35.48 196.471 35.48ZM196.471 30.44C198.103 30.44 199.591 30.136 200.935 29.528C202.311 28.92 203.495 28.072 204.487 26.984C205.479 25.864 206.247 24.568 206.791 23.096C207.367 21.592 207.655 19.96 207.655 18.2C207.655 16.44 207.367 14.824 206.791 13.352C206.247 11.848 205.479 10.552 204.487 9.464C203.495 8.344 202.311 7.48 200.935 6.872C199.591 6.264 198.103 5.96 196.471 5.96C194.839 5.96 193.335 6.264 191.959 6.872C190.615 7.48 189.431 8.328 188.407 9.416C187.415 10.504 186.647 11.8 186.103 13.304C185.559 14.776 185.287 16.408 185.287 18.2C185.287 19.96 185.559 21.592 186.103 23.096C186.647 24.6 187.415 25.896 188.407 26.984C189.431 28.072 190.615 28.92 191.959 29.528C193.335 30.136 194.839 30.44 196.471 30.44ZM234.978 35.48C232.546 35.48 230.274 35.048 228.162 34.184C226.05 33.288 224.194 32.056 222.594 30.488C220.994 28.92 219.746 27.096 218.85 25.016C217.986 22.904 217.554 20.632 217.554 18.2C217.554 15.8 217.986 13.56 218.85 11.48C219.746 9.4 220.978 7.592 222.546 6.056C224.146 4.488 226.002 3.272 228.114 2.408C230.226 1.544 232.498 1.112 234.93 1.112C236.626 1.112 238.274 1.352 239.874 1.832C241.506 2.312 242.978 2.984 244.29 3.848C245.602 4.712 246.674 5.704 247.506 6.824L244.146 10.328C243.186 9.4 242.194 8.632 241.17 8.024C240.178 7.416 239.154 6.952 238.098 6.632C237.042 6.312 235.986 6.152 234.93 6.152C233.202 6.152 231.602 6.456 230.13 7.064C228.69 7.672 227.41 8.52 226.29 9.608C225.202 10.696 224.354 11.976 223.746 13.448C223.138 14.888 222.834 16.472 222.834 18.2C222.834 19.864 223.154 21.448 223.794 22.952C224.434 24.424 225.314 25.72 226.434 26.84C227.586 27.96 228.898 28.84 230.37 29.48C231.874 30.12 233.458 30.44 235.122 30.44C236.37 30.44 237.554 30.264 238.674 29.912C239.794 29.528 240.786 29 241.65 28.328C242.514 27.656 243.186 26.888 243.666 26.024C244.146 25.128 244.386 24.184 244.386 23.192V22.232L245.106 22.904H234.834V17.768H249.714C249.778 18.12 249.826 18.472 249.858 18.824C249.89 19.144 249.906 19.464 249.906 19.784C249.938 20.072 249.954 20.36 249.954 20.648C249.954 22.856 249.57 24.872 248.802 26.696C248.034 28.488 246.962 30.04 245.586 31.352C244.242 32.664 242.658 33.688 240.834 34.424C239.042 35.128 237.09 35.48 234.978 35.48ZM270.768 35.48C268.4 35.48 266.208 35.048 264.192 34.184C262.208 33.32 260.464 32.12 258.96 30.584C257.488 29.016 256.336 27.192 255.504 25.112C254.704 23 254.304 20.696 254.304 18.2C254.304 15.704 254.704 13.416 255.504 11.336C256.336 9.224 257.488 7.4 258.96 5.864C260.464 4.296 262.208 3.08 264.192 2.216C266.208 1.352 268.4 0.919998 270.768 0.919998C273.136 0.919998 275.312 1.352 277.296 2.216C279.312 3.08 281.056 4.296 282.528 5.864C284.032 7.432 285.184 9.272 285.984 11.384C286.816 13.464 287.232 15.736 287.232 18.2C287.232 20.664 286.816 22.952 285.984 25.064C285.184 27.144 284.032 28.968 282.528 30.536C281.056 32.104 279.312 33.32 277.296 34.184C275.312 35.048 273.136 35.48 270.768 35.48ZM270.768 30.44C272.4 30.44 273.888 30.136 275.232 29.528C276.608 28.92 277.792 28.072 278.784 26.984C279.776 25.864 280.544 24.568 281.088 23.096C281.664 21.592 281.952 19.96 281.952 18.2C281.952 16.44 281.664 14.824 281.088 13.352C280.544 11.848 279.776 10.552 278.784 9.464C277.792 8.344 276.608 7.48 275.232 6.872C273.888 6.264 272.4 5.96 270.768 5.96C269.136 5.96 267.632 6.264 266.256 6.872C264.912 7.48 263.728 8.328 262.704 9.416C261.712 10.504 260.944 11.8 260.4 13.304C259.856 14.776 259.584 16.408 259.584 18.2C259.584 19.96 259.856 21.592 260.4 23.096C260.944 24.6 261.712 25.896 262.704 26.984C263.728 28.072 264.912 28.92 266.256 29.528C267.632 30.136 269.136 30.44 270.768 30.44Z" fill="black"/>
</svg>
