<svg width="129" height="100" viewBox="0 0 129 100" fill="none" xmlns="http://www.w3.org/2000/svg">
<path fill-rule="evenodd" clip-rule="evenodd" d="M7.125 0C3.19 0 0 3.19 0 7.125C0 11.06 3.19 14.25 7.125 14.25H121.125C125.06 14.25 128.25 11.06 128.25 7.125C128.25 3.19 125.06 0 121.125 0H7.125ZM28.5 49.875C28.5 45.9399 31.69 42.75 35.625 42.75H121.125C125.06 42.75 128.25 45.9399 128.25 49.875C128.25 53.8101 125.06 57 121.125 57H35.625C31.69 57 28.5 53.8101 28.5 49.875ZM71.25 92.625C71.25 88.6899 74.4399 85.5 78.375 85.5H121.125C125.06 85.5 128.25 88.6899 128.25 92.625C128.25 96.5601 125.06 99.75 121.125 99.75H78.375C74.4399 99.75 71.25 96.5601 71.25 92.625Z" fill="black"/>
</svg>
