<svg width="396" height="100" viewBox="0 0 396 100" fill="none" xmlns="http://www.w3.org/2000/svg">
<rect x="5" y="5" width="120" height="90" fill="white" stroke="black" stroke-width="10"/>
<rect x="18" y="10" width="95" height="20" fill="#0984E3"/>
<rect x="18" y="70" width="95" height="20" fill="#1F2428"/>
<rect x="13" y="30" width="104" height="40" fill="white"/>
<path d="M57.9328 48.7703L57.7312 48.8281L57.6311 49.0123L49.0337 64.8381L36.8168 22.1807L75.1361 43.8434L57.9328 48.7703Z" fill="black" stroke="white"/>
<path d="M175.47 68.072L167.622 48.872L159.918 68.024H159.102L147.918 34.544H154.542L160.374 53.96L167.358 34.544H168.174L175.254 53.888L180.75 34.544H187.326L176.238 68.072H175.47ZM190.818 68V34.544H208.29V39.776H196.818V47.6H205.938V52.688H196.818V62.576H209.25V68H190.818ZM214.409 68V34.544H223.337C227.273 34.544 230.137 35.328 231.929 36.896C233.721 38.448 234.617 40.64 234.617 43.472C234.617 44.736 234.313 46.024 233.705 47.336C233.097 48.648 232.097 49.632 230.705 50.288C232.609 50.752 234.017 51.68 234.929 53.072C235.841 54.464 236.297 56.224 236.297 58.352C236.297 61.296 235.289 63.64 233.273 65.384C231.257 67.128 227.993 68 223.481 68H214.409ZM223.337 39.296H220.457V48.56H224.345C225.433 48.56 226.289 48.304 226.913 47.792C227.553 47.264 228.001 46.624 228.257 45.872C228.529 45.104 228.665 44.368 228.665 43.664C228.665 42.512 228.409 41.624 227.897 41C227.401 40.36 226.745 39.92 225.929 39.68C225.113 39.424 224.249 39.296 223.337 39.296ZM223.865 53.024H220.457V63.152H224.153C225.113 63.152 226.033 63.024 226.913 62.768C227.809 62.512 228.537 62.016 229.097 61.28C229.673 60.544 229.961 59.456 229.961 58.016C229.961 56.56 229.657 55.48 229.049 54.776C228.457 54.056 227.689 53.584 226.745 53.36C225.817 53.136 224.857 53.024 223.865 53.024ZM253.805 68.576C252.061 68.576 250.381 68.224 248.765 67.52C247.149 66.8 245.693 65.72 244.397 64.28C243.117 62.824 242.101 60.976 241.349 58.736C240.597 56.496 240.221 53.856 240.221 50.816C240.221 47.168 240.853 44.096 242.117 41.6C243.397 39.088 245.101 37.192 247.229 35.912C249.373 34.616 251.741 33.968 254.333 33.968C256.093 33.968 257.525 34.136 258.629 34.472C259.749 34.808 260.637 35.208 261.293 35.672C261.965 36.136 262.509 36.56 262.925 36.944L260.237 41.984C259.549 41.232 258.837 40.632 258.101 40.184C257.365 39.72 256.189 39.488 254.573 39.488C252.941 39.488 251.549 39.96 250.397 40.904C249.261 41.848 248.389 43.152 247.781 44.816C247.189 46.464 246.893 48.352 246.893 50.48C246.893 54.656 247.589 57.808 248.981 59.936C250.389 62.048 252.077 63.104 254.045 63.104C255.565 63.104 256.861 62.888 257.933 62.456C259.005 62.024 259.805 61.536 260.333 60.992L262.973 65.744C262.525 66.112 261.925 66.52 261.173 66.968C260.437 67.4 259.469 67.776 258.269 68.096C257.085 68.416 255.597 68.576 253.805 68.576ZM290.396 68H282.956L274.364 55.904V68H268.268V34.544H277.58C279.852 34.544 281.884 34.88 283.676 35.552C285.468 36.208 286.884 37.312 287.924 38.864C288.964 40.416 289.484 42.528 289.484 45.2C289.484 46.656 289.236 48.16 288.74 49.712C288.26 51.248 287.452 52.624 286.316 53.84C285.196 55.056 283.676 55.904 281.756 56.384L290.396 68ZM274.364 52.88H276.908C278.316 52.88 279.492 52.552 280.436 51.896C281.396 51.224 282.116 50.352 282.596 49.28C283.092 48.192 283.34 47.024 283.34 45.776C283.34 43.616 282.844 42.008 281.852 40.952C280.86 39.88 279.164 39.344 276.764 39.344H274.364V52.88ZM291.442 68L305.602 33.968H306.082L320.29 68H313.762L311.89 63.152H299.938L298.162 68H291.442ZM305.026 49.376L301.666 58.496H310.114L306.61 49.376L305.794 46.688L305.026 49.376ZM322.924 68V34.544H340.396V39.824H329.068V48.608H338.956V53.984H329.068V68H322.924ZM351.025 68V39.968H343.297V34.544H364.945V39.968H357.217V68H351.025Z" fill="white"/>
<path d="M378.788 46.784L370.884 68H365.7L372.26 50.72L373.764 51.264H364.452V46.784H378.788ZM387.01 68.256C385.751 68.256 384.524 68.0213 383.33 67.552C382.135 67.0827 381.207 66.5173 380.546 65.856L382.946 62.144C383.33 62.6133 383.874 63.008 384.578 63.328C385.303 63.6267 385.996 63.776 386.658 63.776C387.148 63.776 387.607 63.6693 388.034 63.456C388.46 63.2427 388.802 62.9227 389.058 62.496C389.314 62.0693 389.442 61.5467 389.442 60.928C389.442 60.2453 389.303 59.648 389.026 59.136C388.77 58.624 388.386 58.2293 387.874 57.952C387.383 57.6533 386.796 57.504 386.114 57.504C385.452 57.504 384.823 57.6 384.226 57.792C383.628 57.9627 382.924 58.2613 382.114 58.688H382.082V46.784H392.674V51.264H386.082V54.688L385.538 53.728C385.836 53.6853 386.124 53.6533 386.402 53.632C386.679 53.6107 386.956 53.6 387.234 53.6C388.727 53.6 389.986 53.9307 391.01 54.592C392.055 55.2533 392.855 56.128 393.41 57.216C393.964 58.304 394.242 59.488 394.242 60.768C394.242 62.176 393.922 63.4453 393.282 64.576C392.642 65.7067 391.767 66.6027 390.658 67.264C389.57 67.9253 388.354 68.256 387.01 68.256Z" fill="white"/>
</svg> 