<svg width="128" height="128" viewBox="0 0 128 128" fill="none" xmlns="http://www.w3.org/2000/svg">
<path d="M108.04 20H19.5531C19.1412 20 18.7461 20.1636 18.4549 20.4549C18.1636 20.7461 18 21.1412 18 21.5531V89.8221C18.0002 90.2339 18.1639 90.6288 18.4551 90.92C18.7463 91.2112 19.1412 91.3749 19.5531 91.3751H51.3633L49.5041 98.5636H46.0474C45.6356 98.5638 45.2407 98.7275 44.9495 99.0187C44.6583 99.3099 44.4946 99.7048 44.4943 100.117V106.447C44.4943 106.859 44.658 107.254 44.9492 107.545C45.2405 107.836 45.6355 108 46.0474 108H81.5459C81.9578 108 82.3529 107.836 82.6441 107.545C82.9354 107.254 83.099 106.859 83.099 106.447V100.117C83.0988 99.7048 82.9351 99.3099 82.6439 99.0187C82.3527 98.7275 81.9578 98.5638 81.5459 98.5636H78.0893L76.23 91.3751H108.04C108.452 91.3749 108.847 91.2112 109.138 90.92C109.429 90.6288 109.593 90.2339 109.593 89.8221V21.5531C109.593 21.1412 109.43 20.7461 109.138 20.4549C108.847 20.1636 108.452 20 108.04 20ZM79.9964 104.888H47.6005V101.664H79.9929L79.9964 104.888ZM74.8847 98.5574H52.7123L54.5715 91.3689H73.0263L74.8847 98.5574ZM106.491 88.2628H21.1097V23.1061H106.484L106.491 88.2628Z" fill="#D1D1D1"/>
<path d="M25.9906 79.528H101.602C102.014 79.528 102.409 79.3643 102.701 79.0731C102.992 78.7818 103.156 78.3868 103.156 77.9749V27.4915C103.156 27.0796 102.992 26.6846 102.701 26.3934C102.409 26.1021 102.014 25.9385 101.602 25.9385H25.9906C25.5787 25.9385 25.1836 26.1021 24.8924 26.3934C24.6011 26.6846 24.4375 27.0796 24.4375 27.4915V77.974C24.4374 78.178 24.4775 78.3801 24.5555 78.5686C24.6335 78.7572 24.7478 78.9285 24.8921 79.0728C25.0363 79.2171 25.2075 79.3316 25.396 79.4097C25.5845 79.4878 25.7865 79.528 25.9906 79.528ZM27.5436 29.0455H100.056V76.4218H27.5401L27.5436 29.0455Z" fill="#D1D1D1"/>
<path d="M63.7952 86.9977C65.518 86.9977 66.9146 85.601 66.9146 83.8782C66.9146 82.1554 65.518 80.7588 63.7952 80.7588C62.0724 80.7588 60.6758 82.1554 60.6758 83.8782C60.6758 85.601 62.0724 86.9977 63.7952 86.9977Z" fill="#D1D1D1"/>
</svg>
