<svg width="119" height="75" viewBox="0 0 119 75" fill="none" xmlns="http://www.w3.org/2000/svg">
<path d="M16.2783 59.1682C10.0318 53.8544 4.91374 47.72 0.909499 40.6395C-0.346351 38.4189 -0.285942 36.3479 0.993553 34.1562C10.3069 18.2031 23.7457 7.41998 41.4835 2.62332C64.4741 -3.59378 85.2573 1.31033 103.572 16.5838C109.394 21.4392 114.019 27.3409 117.89 33.8721C119.381 36.3881 119.366 38.6635 117.868 41.1588C107.63 58.2049 92.9695 69.2625 73.5841 73.3896C52.3587 77.9084 33.2523 72.8391 16.2783 59.1682ZM49.1187 13.1481C37.7581 18.4511 31.7652 29.3203 33.4801 41.5113C35.5429 56.1758 49.9486 66.4552 64.4175 63.5871C78.6628 60.7634 88.0203 47.1085 85.5043 32.8167C82.5769 16.1885 64.7864 6.48517 49.1187 13.1481Z" fill="#FDFDFD"/>
<path d="M77.9984 37.5083C78.1329 47.0691 69.5164 55.1554 59.3321 54.9977C49.1929 54.8408 41.1182 47.18 41.0012 37.5515C40.8816 27.699 49.6183 20.1199 59.2122 20.0015C69.523 19.8743 78.1267 27.876 77.9984 37.5083Z" fill="#FDFDFD"/>
</svg>
