<svg width="83" height="84" viewBox="0 0 83 84" fill="none" xmlns="http://www.w3.org/2000/svg">
<path d="M0 0V84H83V0H0ZM77.4667 78.4001H5.53328V5.59995H77.4666V78.4001H77.4667Z" fill="#D1D1D1"/>
<path d="M20.5119 16.8001H32.2774V11.2002H11.0664V32.6668H16.5997V20.7603L32.1658 36.5136L36.0781 32.5539L20.5119 16.8001Z" fill="#D1D1D1"/>
<path d="M36.0783 51.4461L32.1658 47.4863L16.5997 63.2399V51.3326H11.0664V72.7992H32.2774V67.1993H20.5127L36.0783 51.4461Z" fill="#D1D1D1"/>
<path d="M66.4003 51.3318V63.2391L50.8342 47.4854L46.9219 51.4448L62.4873 67.1984H50.7225V72.7984H71.9336V51.3318H66.4003Z" fill="#D1D1D1"/>
<path d="M50.7225 11.2002V16.8001H62.4881L46.9219 32.5539L50.8342 36.5136L66.4003 20.7603V32.6668H71.9336V11.2002H50.7225Z" fill="#D1D1D1"/>
</svg>
