<svg width="128" height="128" viewBox="0 0 128 128" fill="none" xmlns="http://www.w3.org/2000/svg">
<path d="M68.0236 92.0538C68.0236 94.2647 66.2315 96.0568 64.0206 96.0568C61.8097 96.0568 60.0176 94.2647 60.0176 92.0538C60.0176 89.8429 61.8097 88.0508 64.0206 88.0508C66.2315 88.0508 68.0236 89.8429 68.0236 92.0538Z" fill="#D1D1D1"/>
<path fill-rule="evenodd" clip-rule="evenodd" d="M52.9495 20L53.1442 20C53.1746 20 53.205 20 53.2354 20H74.8069C74.8373 20 74.8678 20 74.8982 20L75.0927 20C75.1888 20 75.2817 20 75.3725 20H76.0302C76.0959 20 76.1611 20.0016 76.226 20.0047C76.571 20.0097 76.8781 20.0199 77.1675 20.0405C85.1143 20.6063 91.4363 26.9282 92.0019 34.875C92.0427 35.4461 92.0423 36.0857 92.0423 36.9494V84.897C92.0423 88.1735 92.0423 90.8779 91.8598 93.0796C91.6696 95.3665 91.2617 97.4677 90.2398 99.4356C88.7206 102.36 86.336 104.745 83.4114 106.264C81.4435 107.286 79.3423 107.694 77.0554 107.884C74.8537 108.066 72.1497 108.066 68.8732 108.066H59.1691C55.8929 108.066 53.1886 108.066 50.9871 107.884C48.7 107.694 46.599 107.286 44.631 106.264C41.7065 104.745 39.322 102.36 37.8028 99.4356C36.7805 97.4677 36.3727 95.3665 36.1828 93.0796C35.9999 90.8779 36 88.1735 36.0001 84.897L36 36.9495C35.9999 36.0857 35.9998 35.4461 36.0405 34.875C36.6063 26.9282 42.9282 20.6063 50.875 20.0405C51.1644 20.0199 51.4714 20.0097 51.8162 20.0047C51.8812 20.0016 51.9465 20 52.0121 20H52.67C52.7605 20 52.8537 20 52.9495 20ZM53.099 28.0061C52.0209 28.0061 51.6917 28.0086 51.4436 28.0263C47.4702 28.3092 44.3092 31.4702 44.0263 35.4435C44.0086 35.6917 44.0061 36.0209 44.0061 37.099V84.7289C44.0061 88.2155 44.0093 90.5857 44.1614 92.4171C44.3094 94.2 44.5777 95.1103 44.9075 95.7452C45.667 97.2071 46.8593 98.3996 48.3216 99.159C48.9564 99.4888 49.8666 99.757 51.6497 99.9051C53.4807 100.057 55.851 100.06 59.3376 100.06H68.7047C72.1913 100.06 74.5615 100.057 76.3929 99.9051C78.1759 99.757 79.0861 99.4888 79.721 99.159C81.1829 98.3996 82.3754 97.2071 83.1348 95.7452C83.4646 95.1103 83.7329 94.2 83.881 92.4171C84.0331 90.5857 84.0363 88.2155 84.0363 84.7289V37.099C84.0363 36.0209 84.0339 35.6917 84.0163 35.4435C83.7333 31.4702 80.5721 28.3092 76.5987 28.0263C76.3509 28.0086 76.0214 28.0061 74.9434 28.0061C74.6756 28.0061 74.6456 28.0067 74.6256 28.0075C74.1112 28.027 73.624 28.2439 73.2657 28.6132C73.2513 28.6277 73.2309 28.6495 73.052 28.8485L71.0957 31.022L71.0457 31.0772C71.0221 31.1029 70.976 31.1528 70.9172 31.2119C70.7919 31.3378 70.5669 31.5502 70.2471 31.761C69.8636 32.0134 69.4417 32.2013 68.9977 32.3173C68.627 32.4142 68.3184 32.4394 68.1415 32.4482C68.0578 32.4523 67.9898 32.4532 67.9553 32.4536L67.8809 32.4539H60.1619L60.087 32.4536C60.0526 32.4532 59.9845 32.4523 59.9013 32.4482C59.7239 32.4394 59.4153 32.4142 59.0446 32.3173C58.6007 32.2013 58.1788 32.0134 57.7953 31.761C57.4754 31.5502 57.2505 31.3378 57.1252 31.2119C57.0667 31.1528 57.0203 31.1029 56.9967 31.0772L56.9466 31.022L54.9906 28.8485C54.8115 28.6495 54.7909 28.6277 54.7768 28.6132C54.4182 28.2439 53.9312 28.027 53.4168 28.0075C53.3966 28.0067 53.3666 28.0061 53.099 28.0061Z" fill="#D1D1D1"/>
</svg>
