<svg width="128" height="128" viewBox="0 0 128 128" fill="none" xmlns="http://www.w3.org/2000/svg">
<path d="M83 108H45.1453C43.5148 107.998 41.9517 107.349 40.7995 106.195C39.6472 105.042 39 103.478 39 101.847V26.1527C39 24.5221 39.6472 22.9583 40.7995 21.8047C41.9517 20.651 43.5148 20.0019 45.1453 20H83C84.6305 20.0019 86.1936 20.651 87.3459 21.8047C88.4981 22.9583 89.1453 24.5221 89.1453 26.1527V101.847C89.1453 103.478 88.4981 105.042 87.3459 106.195C86.1936 107.349 84.6305 107.998 83 108ZM45.1453 22.838C44.2675 22.8399 43.4263 23.19 42.8062 23.8114C42.1862 24.4328 41.838 25.2748 41.838 26.1527V101.847C41.838 102.725 42.1862 103.567 42.8062 104.189C43.4263 104.81 44.2675 105.16 45.1453 105.162H83C83.8778 105.16 84.719 104.81 85.3391 104.189C85.9591 103.567 86.3073 102.725 86.3073 101.847V26.1527C86.3073 25.2748 85.9591 24.4328 85.3391 23.8114C84.719 23.19 83.8778 22.8399 83 22.838H45.1453Z" fill="#D1D1D1"/>
<path d="M74.1222 27.568H54.0289L48.8809 22.42L50.8829 20.418L55.2022 24.73H72.9489L77.2682 20.418L79.2702 22.42L74.1222 27.568Z" fill="#D1D1D1"/>
<path d="M73.5406 95.7021H54.6133V98.5401H73.5406V95.7021Z" fill="#D1D1D1"/>
</svg>
