<svg width="85" height="77" viewBox="0 0 85 77" fill="none" xmlns="http://www.w3.org/2000/svg">
  <path d="M39.8686 21.2558C38.9946 19.7591 39.4752 18.437 40.23 17.1672C41.2218 15.4986 42.5771 14.116 43.8937 12.7127C46.1145 10.3458 46.1299 7.45296 43.9095 5.06014C42.539 3.58318 40.9236 2.44686 39.154 1.5088C38.9098 1.37937 38.6561 1.24435 38.4582 1.05756C38.2383 0.850007 38.2054 0.558189 38.3662 0.286471C38.5077 0.0474559 38.7478 -0.0151003 39.0116 0.00289255C39.0729 0.00707218 39.1392 0.0144641 39.193 0.0409679C42.581 1.70921 45.6675 3.71535 46.8001 7.60813C47.4405 9.80917 46.5836 11.6966 45.1603 13.3509C43.9865 14.7152 42.6738 15.9616 41.6838 17.4801C41.4804 17.7922 41.2611 18.0972 41.0902 18.4268C40.3682 19.8191 40.6651 20.5477 42.1557 21.0482C42.5079 21.1664 42.8824 21.218 43.2352 21.3346C43.6192 21.4615 43.9104 21.7021 43.8011 22.1593C43.706 22.5576 43.3889 22.6861 43.0108 22.6487C41.8368 22.5326 40.7725 22.154 39.8686 21.2558Z" fill="white"/>
  <path d="M29.2402 24.3866C29.795 25.077 30.542 25.1891 31.2732 25.3293C31.7334 25.4176 32.1768 25.57 32.0917 26.1337C31.9964 26.7651 31.4795 26.7426 30.9983 26.6583C30.6325 26.5942 30.2677 26.5085 29.913 26.3986C27.9501 25.7901 27.223 24.3547 27.925 22.4156C28.4311 21.0178 29.3943 19.906 30.3366 18.7934C30.9778 18.0363 31.6685 17.3209 32.3386 16.5882C34.2584 14.4891 34.3671 11.9098 32.6315 9.64957C31.2777 7.88645 29.4802 6.68361 27.561 5.63332C27.3162 5.49938 27.0681 5.36801 26.8388 5.21036C26.5451 5.00845 26.4588 4.7082 26.6046 4.39118C26.7731 4.02496 27.1211 3.88717 27.4614 4.06365C30.7607 5.77449 33.9014 7.6857 35.0411 11.5478C35.6847 13.7292 34.9579 15.6575 33.5179 17.3163C32.2781 18.7445 30.9191 20.0721 29.8544 21.6455C29.3112 22.4482 28.8042 23.2825 29.2402 24.3866Z" fill="white"/>
  <path d="M51.3776 22.3904C52.2921 20.212 53.8823 18.6169 55.4196 17.0068C57.8453 14.4664 57.9374 11.6792 55.5883 9.07003C54.6446 8.02185 53.5669 7.14828 52.3568 6.43137C51.8227 6.11496 51.29 5.79609 50.7529 5.4848C50.317 5.23216 49.7662 4.97531 50.0775 4.36816C50.425 3.69068 50.9877 4.04353 51.4435 4.29285C52.1509 4.67979 52.8587 5.07501 53.523 5.52991C55.2219 6.6933 56.7688 7.99589 57.8173 9.83634C59.4592 12.7184 58.659 15.4559 56.7219 17.6142C55.7483 18.6989 54.7421 19.7538 53.8468 20.9057C53.581 21.2477 53.3241 21.6007 53.1021 21.9719C51.9289 23.9338 52.3293 24.8603 54.5491 25.3095C55.0606 25.413 55.6437 25.5086 55.517 26.1656C55.393 26.809 54.8089 26.7308 54.2975 26.6235C52.8521 26.3203 51.5 25.9048 51.138 24.1902C51.0097 23.5827 51.1939 23.0258 51.3776 22.3904Z" fill="white"/>
  <path d="M49.143 76.6526C45.6632 76.6558 42.2742 76.713 38.8878 76.6454C34.4471 76.5568 30.0296 76.1644 25.6179 75.6079C20.8901 75.0116 16.2371 74.1159 11.6914 72.7056C8.74517 71.7917 5.8877 70.6392 3.42243 68.7216C0.0147424 66.0709 -0.37026 63.5565 0.238847 59.8405C0.513692 58.1638 1.69007 56.9839 3.0389 56.0261C5.47695 54.2949 8.22123 53.2154 11.0874 52.461C11.9123 52.2439 12.2587 51.8544 12.4357 51.0637C13.508 46.2743 15.4238 41.8518 18.462 37.9748C23.5203 31.52 30.3859 28.4544 38.3715 27.5795C39.0072 27.5099 39.4166 27.3336 39.8103 26.7872C41.052 25.0637 43.9076 25.0264 45.2464 26.7333C45.7257 27.3444 46.2316 27.5228 46.9514 27.606C54.9043 28.525 61.7827 31.5864 67.0246 37.8236C70.4732 41.9271 72.5643 46.706 73.8083 51.8681C74.0504 52.8727 74.3972 53.4909 75.4448 53.8049C77.689 54.4773 79.7735 55.5221 81.6682 56.9136C83.1856 58.0279 84.3351 59.3909 84.7638 61.2999C85.5857 64.9592 84.2639 67.9751 80.7779 70.0943C77.776 71.919 74.4832 73.0124 71.09 73.8523C64.7039 75.4331 58.2088 76.1868 51.6502 76.4863C50.8443 76.5231 50.04 76.5953 49.143 76.6526ZM12.9704 59.8911C13.4532 60.954 14.2742 61.6947 15.2676 62.2574C16.5985 63.0113 18.0052 63.6055 19.4841 63.9834C24.0431 65.1485 28.6948 65.7384 33.3855 65.8996C38.2275 66.0661 43.0735 66.1977 47.922 65.9921C50.7777 65.8711 53.6324 65.7439 56.4614 65.3408C60.6788 64.7399 64.8783 64.0309 68.8029 62.2544C70.1394 61.6494 71.4011 60.9174 72.4042 59.8163C72.9874 59.1761 73.3672 58.4479 73.3075 57.548C73.1176 54.6853 72.5729 51.8933 71.6466 49.1763C68.8761 41.0495 64.0458 34.724 55.9589 31.2376C53.1674 30.0342 50.2212 29.4304 47.2376 28.9777C46.8414 28.9176 46.327 28.7865 46.1205 29.3596C45.8623 30.0766 45.2503 30.2782 44.6039 30.4397C43.5943 30.6918 42.566 30.6399 41.5419 30.6091C40.3174 30.5722 39.149 30.4126 38.8112 28.9422C37.3631 28.9534 36.0262 29.2327 34.6914 29.518C27.6744 31.0179 22.1254 34.6671 18.2028 40.7243C15.2739 45.2471 13.7038 50.2449 13.005 55.5367C12.8213 56.9272 12.3624 58.3407 12.9704 59.8911ZM74.6932 57.8651C74.5798 59.3488 73.8575 60.5006 72.7472 61.4446C70.4843 63.3687 67.7522 64.3097 64.962 65.0916C58.1733 66.9941 51.192 67.3157 44.2028 67.4795C40.4458 67.5675 6.75557 67.649 3 67.5C-1.95389 67.3034 23.0934 66.4367 18.3192 65.0773C16.6713 64.608 15.0931 63.9274 13.7057 62.8979C12.4739 61.9838 11.4959 60.8651 11.4158 59.2337C11.3625 58.1491 11.3911 57.0612 11.5345 55.9792C11.6263 55.2865 11.3269 54.344 11.4158 53.5C9.25497 54.0299 14.8222 61.9602 12.9704 62.8979C11.8602 63.4601 6.87647 55.5961 6 56.5C4.52547 58.0207 25.491 66.8636 26.5 68.7216C27.1532 69.9244 3.69275 65.3657 4.80235 66.131C8.37795 68.5974 12.3507 69.0141 16.5 70C23.8737 71.752 -3.54097 65.8255 4 66.131C11.8342 66.4484 1.23133 68.2331 9 67.202C12.4357 68.7216 64.5033 65.4156 68.8029 63.8032C70.9045 63.0151 72.1188 61.8333 73.8083 60.3062C76.2883 58.0646 77.1788 60.0781 74.6932 57.8651C73.0192 56.3747 77.9504 56.1991 75.8716 55.4292C75.457 55.2756 75.0536 54.9496 74.4493 55.1712C74.5267 56.0049 74.6057 56.8559 74.6932 57.8651ZM41.7936 26.9764C41.0648 27.1993 40.6989 27.7479 40.4963 28.435C40.3827 28.8203 40.4675 29.1565 40.9166 29.1866C41.9967 29.2592 43.0812 29.3167 44.1587 29.1415C44.715 29.051 44.7478 28.7117 44.584 28.2523C44.216 27.2197 43.3259 26.767 41.7936 26.9764Z" fill="white"/>
  <path d="M63.5395 60.4491C62.949 60.6697 62.4278 60.8728 61.8989 61.0537C61.48 61.197 61.065 61.2006 60.902 60.6947C60.7483 60.2179 61.0295 59.926 61.4532 59.7666C62.7028 59.2964 63.9463 58.8353 65.0924 58.1145C66.6323 57.1461 67.1904 55.9471 66.9333 54.0543C66.2269 48.8527 64.404 44.1597 61.213 39.9931C60.9252 39.6174 60.6 39.1625 61.0988 38.7706C61.6461 38.3406 62.0152 38.805 62.3226 39.2036C65.1215 42.8332 66.9243 46.9184 67.8728 51.3896C68.1173 52.5419 68.3116 53.6985 68.4218 54.8775C68.579 56.5589 67.8242 57.744 66.5897 58.7207C65.6836 59.4375 64.6872 60.0073 63.5395 60.4491Z" fill="white"/>
  <rect x="5.87891" y="60.0605" width="13.525" height="7.08102" transform="rotate(23.5393 5.87891 60.0605)" fill="white"/>
  <path d="M4.13977 57.287L11.5 53L12.1517 57.477L6.12156 60.8402L4.13977 57.287Z" fill="white"/>
  <path d="M81.926 63.1522L73.5001 61.4997L73.9995 53.9999L83.4959 59.3987L81.926 63.1522Z" fill="white"/>
  <path d="M72.1721 62.4375L68.6669 66.0533L66.0009 65.0675L71.289 61.3514L72.1721 62.4375Z" fill="white"/>
</svg>
