<svg width="77" height="77" viewBox="0 0 77 77" fill="none" xmlns="http://www.w3.org/2000/svg">
  <path d="M29.3493 37.7349C28.7729 34.9676 27.4817 32.4386 26.6904 29.7361C25.9686 27.2708 25.3557 24.787 24.7904 22.2865C24.6751 21.7764 24.7157 21.0841 24.0714 20.9789C23.3942 20.8685 23.0968 21.5141 22.8145 22.007C21.6143 24.1018 21.2778 26.436 20.9475 28.7782C20.5006 31.9478 20.7806 35.1451 20.5224 38.3251C20.3675 40.2325 19.9 41.8844 18.4263 43.1786C18.0637 43.4971 17.7166 43.8745 17.6381 44.4106C17.9715 44.9058 18.5105 44.7989 18.9798 44.8907C19.4802 44.9885 19.7905 45.2817 19.8519 45.8036C19.9074 46.2751 19.6776 46.5404 19.2813 46.7943C17.6997 47.8073 17.5348 48.3477 18.2443 50.0468C18.3806 50.3733 18.386 50.6554 18.3274 50.9983C18.0674 52.5195 18.43 53.2997 19.8356 53.8355C20.6806 54.1576 20.924 54.6461 20.9794 55.4911C21.1763 58.4926 22.2805 59.4583 25.2992 59.5551C28.0842 59.6445 30.8297 59.2126 33.5937 59.0321C34.6126 58.9655 35.3103 59.2636 35.8279 60.1971C38.6377 65.2647 41.4889 70.3093 44.3222 75.3639C44.4613 75.612 44.6344 75.8593 44.5239 76.357C41.233 77.1426 37.8259 77.124 34.4357 76.7504C25.4858 75.7643 17.7816 72.0962 11.3301 65.7929C-0.617313 54.12 -3.4859 34.9431 4.49664 20.3039C13.05 4.61796 30.2812 -2.85957 47.2268 1.00259C62.4731 4.47742 72.0968 16.7352 74.381 25.4204C72.4241 25.4917 70.6036 24.9618 68.7934 24.4439C66.8758 23.8952 65.0975 23.0047 63.3401 22.0672C58.4461 19.4564 53.5614 16.8209 48.2152 15.2051C47.2649 14.9179 46.3081 14.6698 45.3019 14.678C45.199 14.9433 45.4191 14.9524 45.5355 14.9823C50.4519 16.2473 54.7651 18.7866 59.1014 21.3076C63.4351 23.8269 67.8628 26.1695 72.8023 27.3343C75.6589 28.008 75.5857 28.0344 76.1586 30.9194C76.8243 34.2725 76.9841 37.6447 76.8639 41.0435C76.8066 42.6635 76.6702 42.8173 75.0462 42.755C68.7899 42.5151 62.7554 41.1822 56.8979 39.0038C56.3949 38.8167 55.8969 38.6165 55.3618 38.4803C56.8223 39.7834 58.5388 40.6979 60.256 41.589C64.689 43.8893 69.3907 45.4671 74.2374 46.6267C76.0492 47.0601 76.0706 47.045 75.5118 48.8364C74.8462 50.9697 74.1095 53.0736 73.1531 55.104C72.6892 56.0887 72.12 56.2761 71.096 56.068C66.09 55.0504 61.4755 53.0516 57.0443 50.5853C54.4386 49.1351 51.9289 47.5272 49.5165 45.7697C49.1563 45.5073 48.8207 45.1771 48.2522 45.2575C54.2075 52.2168 61.7456 56.6922 70.4872 59.1356C70.615 59.6654 70.3425 59.9548 70.1356 60.2513C68.5921 62.4635 66.8574 64.5119 64.928 66.4011C64.362 66.9553 63.8398 67.1229 63.0524 66.8875C54.3921 64.2983 46.5652 60.2286 40.0158 53.9132C36.0059 50.0465 32.8966 45.5385 30.7091 40.4035C30.3371 39.5303 30.0375 38.6181 29.4048 37.7855C29.3446 37.7303 29.3493 37.7349 29.3493 37.7349Z" fill="white"/>
  <path d="M29.3421 37.7275C29.0864 39.5375 27.3522 40.9771 25.5311 40.8871C23.8523 40.8042 22.2533 39.4867 22.1582 38.0464C22.3044 38.0236 22.4909 37.9305 22.6029 37.9865C24.5702 38.9693 26.5044 38.8019 28.4352 37.8764C28.6491 37.7739 28.9138 37.7775 29.252 37.7332C29.349 37.7345 29.3444 37.7299 29.3421 37.7275Z" fill="white"/>
</svg>
